<svg width="400" height="31" viewBox="0 0 400 31" fill="none" xmlns="http://www.w3.org/2000/svg">
<path d="M188.939 11.4099H51.6047C36.851 11.4099 22.1272 11.0397 7.44129 10.297L0 9.91282L7.44129 9.53565C22.1135 8.79294 36.8366 8.42276 51.6047 8.42276H188.939V11.4099ZM392.559 9.52399C377.887 8.78129 363.163 8.4111 348.395 8.4111H211.061V11.4098H348.395C363.149 11.4098 377.873 11.0396 392.559 10.2969L400 9.91277L392.559 9.52399ZM200.005 3.75C197.516 3.75 195.273 5.24239 194.32 7.52869C193.367 9.81498 193.893 12.4459 195.654 14.197C197.413 15.9478 200.061 16.4693 202.361 15.5241C204.66 14.5766 206.159 12.3461 206.159 9.86886C206.159 6.49059 203.405 3.75005 200.005 3.75005L200.005 3.75ZM197.364 19.6376C196.205 20.7924 195.935 22.5619 196.703 24.0054L200.005 30.1963L203.306 24.0054C204.074 22.5619 203.805 20.7924 202.646 19.6376C201.185 18.1918 198.825 18.1918 197.364 19.6376H197.364ZM188.07 14.2804H188.072C186.429 14.2827 184.979 15.3467 184.497 16.9066L182.432 23.5815L189.145 21.528V21.5303C190.714 21.0484 191.786 19.6072 191.786 17.9751C191.774 15.9403 190.119 14.2919 188.072 14.2803L188.07 14.2804ZM208.212 17.9962C208.214 19.6307 209.284 21.0719 210.853 21.5514L217.566 23.6049L215.501 16.93C215.019 15.3678 213.569 14.3038 211.928 14.3038C209.877 14.3085 208.214 15.9568 208.2 17.9964L208.212 17.9962Z" fill="black"/>
</svg>
